<?xml version="1.0" encoding="UTF-8" standalone="no"?>
<svg
   width="1117.0315pt"
   height="481.75558pt"
   version="1.1"
   viewBox="0 0 1117.0315 481.75558"
   id="svg1"
   sodipodi:docname="noun-pulse-6947402-4A86E8.svg"
   inkscape:version="1.3.2 (1:1.3.2+202311252150+091e20ef0f)"
   xmlns:inkscape="http://www.inkscape.org/namespaces/inkscape"
   xmlns:sodipodi="http://sodipodi.sourceforge.net/DTD/sodipodi-0.dtd"
   xmlns="http://www.w3.org/2000/svg"
   xmlns:svg="http://www.w3.org/2000/svg">
  <defs
     id="defs1" />
  <sodipodi:namedview
     id="namedview1"
     pagecolor="#ffffff"
     bordercolor="#000000"
     borderopacity="0.25"
     inkscape:showpageshadow="2"
     inkscape:pageopacity="0.0"
     inkscape:pagecheckerboard="0"
     inkscape:deskcolor="#d1d1d1"
     inkscape:document-units="pt"
     inkscape:zoom="1.193125"
     inkscape:cx="745.10215"
     inkscape:cy="321.42483"
     inkscape:window-width="3840"
     inkscape:window-height="2091"
     inkscape:window-x="0"
     inkscape:window-y="0"
     inkscape:window-maximized="1"
     inkscape:current-layer="svg1" />
  <path
     d="m 837.79975,481.75177 c -8.8125,0 -16.219,-6.5625 -17.297,-15.281 l -27.656,-219.79 -26.672,54.094 c -2.4375,4.9688 -7.125,8.4844 -12.562,9.4688 -5.437,0.9844 -11.062,-0.70312 -15.094,-4.5 l -29.859,-28.219 h -57.469 c -7.7812,0 -14.625,-5.1562 -16.781,-12.609 l -15.094,-52.359 -42.422,191.29 c -1.7812,8.1094 -9,13.875 -17.344,13.688 -8.2969,-0.14062 -15.328,-6.0938 -16.875,-14.25 l -27.469,-148.22 -21.797,63.141 c -2.1094,6.0469 -7.3125,10.5 -13.641,11.531 -6.3285,1.031 -12.703,-1.4531 -16.641,-6.5156 l -35.391,-45.609 -43.781,-0.0469 c -6.4219,0 -12.328,-3.5156 -15.375,-9.1875 l -19.641,-36.609 -36,91.734 c -2.9062,7.4531 -10.547,11.953 -18.516,10.922 -7.9219,-1.0312 -14.156,-7.3125 -15.094,-15.281 l -17.625,-151.26 -34.969,298.45 c -1.0312,8.7656 -8.4375,15.375 -17.25,15.422 h -0.0937 c -8.7656,0 -16.219,-6.5156 -17.297,-15.234 l -28.031,-220.22 -26.531,49.078 c -2.4844,4.5938 -6.9375,7.875 -12.094,8.8594 -5.1562,0.98438 -10.453,-0.42187 -14.484,-3.7969 l -27.141,-22.828 -66.375,-0.0469 c -9.6562,0 -17.438,-7.8281 -17.438,-17.438 0,-9.6562 7.8281,-17.438 17.438,-17.438 h 72.703 c 4.125,0 8.1094,1.4531 11.25,4.0781 l 15.656,13.172 42.188,-77.906 c 3.6094,-6.6562 11.109,-10.219 18.562,-8.8594 7.4531,1.4062 13.172,7.4531 14.109,14.953 l 16.875,132.42 35.766,-305.059997 c 1.0312,-8.8125 8.4844,-15.422 17.344,-15.422 8.8596,0 16.312,6.6562 17.344,15.422 l 26.812,230.289997 24.281,-61.828 c 2.4844,-6.3281 8.4375,-10.641 15.188,-11.062 6.7969,-0.375 13.219,3.1875 16.406,9.1406 l 32.578,60.609 h 41.812 c 5.3906,0 10.5,2.4844 13.781,6.75 l 20.859,26.906 32.859,-95.203 c 2.5781,-7.5 9.8906,-12.328 17.812,-11.719 7.9214,0.609 14.438,6.4219 15.844,14.203 l 23.906,128.95 38.672,-174.42 c 1.7344,-7.7812 8.5312,-13.406 16.5,-13.688 8.0156,-0.1875 15.094,4.9688 17.297,12.609 l 30.422,105.56 51.328,0.0469 c 4.4531,0 8.7656,1.6875 12,4.7812 l 17.719,16.734 41.906,-85.078 c 3.4219,-6.9375 10.969,-10.781 18.562,-9.5156 7.593,1.2654 13.453,7.4062 14.438,15.047 l 16.969,134.95 35.625,-304.129997 c 1.0312,-8.7656 8.3906,-15.375 17.203,-15.422 h 0.14062 c 8.7656,0 16.172,6.5156 17.297,15.188 l 32.906,251.529997 39.42203,-67.781 c 3.0469,-5.25 8.5781,-8.5312 14.625,-8.6719 6.0469,-0.1407 11.766,2.8125 15.047,7.875 l 29.672,45.234 60.234,-0.75 c 9.5625,-0.14062 17.531,7.5938 17.672,17.25 0.141,9.6562 -7.5938,17.531 -17.25,17.672 l -69.797,0.84375 h -0.2344 c -5.8594,0 -11.391,-2.9531 -14.578,-7.875 l -19.406,-29.625 -50.95301,87.656 c -3.75,6.4688 -11.203,9.7969 -18.516,8.3438 -7.313,-1.4531 -12.891,-7.4531 -13.875,-14.859 l -21.328,-162.79 -36,307.03 c -1.0312,8.7656 -8.4375,15.375 -17.25,15.422 0,0.0469 -0.0469,0.0469 -0.0469,0.0469 z"
     fill="#4a86e7"
     id="path1" />
</svg>
